<svg width="16" height="16" xmlns="http://www.w3.org/2000/svg" xmlns:xlink="http://www.w3.org/1999/xlink"><defs><path d="M6 11.5A5.506 5.506 0 0 1 .5 6C.5 2.967 2.968.5 6 .5s5.5 2.467 5.5 5.5-2.468 5.5-5.5 5.5" id="a"/></defs><g fill="none" fill-rule="evenodd"><rect width="16" height="16" rx="8"/><rect fill="#DEB8DC" x="1" y="1" width="14" height="14" rx="7"/><rect stroke="#523951" fill="#F9F0F8" x="3" y="3" width="10" height="10" rx="5"/><g transform="translate(2 2)"><mask id="b" fill="#fff"><use xlink:href="#a"/></mask><path d="M4.402 4.35a.65.65 0 1 0 0 1.3.65.65 0 0 0 0-1.3m3.232.616a.65.65 0 1 0 0 1.3.65.65 0 0 0 0-1.3" stroke="#523951" stroke-width=".1" fill="#523951" mask="url(#b)"/><g mask="url(#b)" stroke="#523951" stroke-linecap="round" stroke-linejoin="round" stroke-width=".9"><path d="M3.752 3.007c.174-.164.408-.261.654-.274.246-.034.495.02.7.15m2.134.931a1.07 1.07 0 0 1 .715 0c.238.055.445.19.583.38"/></g><g mask="url(#b)"><path d="M6.11 7.97a.531.531 0 0 1 .416.099c.12.09.2.226.222.378a.602.602 0 0 1-.453.659L4.9 9.351c.12-.02.243.011.34.087a.475.475 0 0 1 .18.314.492.492 0 0 1-.355.556c.13.07.22.2.244.35a.51.51 0 0 1-.305.55.488.488 0 0 1 .096.339.516.516 0 0 1-.435.465l-.162.036c-.42.095-.844.168-1.271.218a7.621 7.621 0 0 1-1.45-.118.968.968 0 0 1-.705-.65C.76 10.813.587 9.517.975 9.142c.389-.374.322-.28.508-.725.185-.444.38-.954.528-1.39.148-.434.206-.63.481-.736a.557.557 0 0 1 .68.335c.04.302.027.61-.042.906-.07.604-.072.743 0 .949l2.98-.51z" stroke="#523951" stroke-width="1.152" stroke-linecap="round" stroke-linejoin="round"/><path d="m2.78 8.55 3.33-.58a.531.531 0 0 1 .416.098c.12.09.2.227.222.379a.602.602 0 0 1-.452.659L4.9 9.35c.12-.02.243.012.341.087a.475.475 0 0 1 .179.315.492.492 0 0 1-.354.556c.13.07.22.2.243.35a.51.51 0 0 1-.304.55.488.488 0 0 1 .095.338.516.516 0 0 1-.435.465l-.162.037c-.42.095-.844.167-1.27.217a7.621 7.621 0 0 1-1.451-.118.968.968 0 0 1-.705-.65c-.316-.685-.49-1.98-.102-2.355.39-.375.322-.281.508-.725a22.8 22.8 0 0 0 .528-1.39c.148-.435.206-.631.482-.737a.557.557 0 0 1 .678.336 2.51 2.51 0 0 1-.04.906c-.07.604-.073.743 0 .948" fill="#F9F0F8" fill-rule="nonzero"/><path d="M6.11 7.97a.531.531 0 0 1 .416.099c.12.09.2.226.222.378a.602.602 0 0 1-.453.659L4.9 9.351c.12-.02.243.011.34.087a.475.475 0 0 1 .18.314.492.492 0 0 1-.355.556c.13.07.22.2.244.35a.51.51 0 0 1-.305.55.488.488 0 0 1 .096.339.516.516 0 0 1-.435.465l-.162.036c-.42.095-.844.168-1.271.218a7.621 7.621 0 0 1-1.45-.118.968.968 0 0 1-.705-.65C.76 10.813.587 9.517.975 9.142c.389-.374.322-.28.508-.725.185-.444.38-.954.528-1.39.148-.434.206-.63.481-.736a.557.557 0 0 1 .68.335c.04.302.027.61-.042.906-.07.604-.072.743 0 .949l2.98-.51z" stroke="#523951" stroke-width=".5" stroke-linecap="round" stroke-linejoin="round"/></g></g></g></svg>